<?xml version="1.0" encoding="UTF-8" standalone="no"?>
<svg
   version="1.1"
   width="555.875"
   height="135.16754"
   id="svg35"
   xmlns="http://www.w3.org/2000/svg"
   xmlns:svg="http://www.w3.org/2000/svg">
  <defs
     id="defs35" />
  <path
     d="m 85.990057,2.2432707 c 0.50058,0.16598 1.00116,0.33195 1.51693,0.50295 11.42087,4.13522 19.746183,11.7853403 24.695033,22.1902303 0.4986,1.22634 0.7192,2.49454 0.99253,3.77901 0.42623,1.34247 0.7493,2.12539 2.07904,2.82602 2.171,0.82917 4.42948,1.36872 6.68953,1.94002 4.1843,1.1765 7.44856,4.14062 10.49386,6.94388 0.29766,0.27299 0.59532,0.54599 0.90199,0.82726 7.24968,7.18853 8.87013,16.01113 8.74404,25.54606 -0.26244,7.19936 -3.73066,13.51452 -8.69773,18.91244 -0.40614,0.45155 -0.40614,0.45155 -0.82051,0.91223 -2.70243,2.77326 -6.04589,4.54429 -9.61083,6.19142 -0.31295,0 -0.62589,0 -0.94831,0 -0.58028,-7.55406 -0.58028,-7.55406 0.71123,-9.51605 0.94831,-0.69545 0.94831,-0.69545 1.99478,-1.32674 4.4289,-2.85419 7.01173,-8.83332 8.1995,-13.57601 0.14036,-1.44509 0.15842,-2.87834 0.14817,-4.32878 -0.002,-0.39432 -0.004,-0.78865 -0.009,-1.19492 -0.0577,-2.92326 -0.36404,-5.51483 -1.56253,-8.23961 -0.19069,-0.43554 -0.3814,-0.87106 -0.57788,-1.3198 -2.77563,-5.71058 -7.37125,-9.97135 -13.46887,-12.58227 -3.23521,-1.13114 -6.72031,-1.33568 -10.13501,-1.63716 -0.70934,-1.89728 -1.23323,-3.7872 -1.7188,-5.74397 -2.1159,-7.77776 -7.345723,-14.99885 -14.764023,-19.14156 -8.72592,-4.6308603 -18.21561,-6.3915503 -28.0875,-4.16728 -9.84811,2.90453 -17.1583,8.57627 -21.96149,17.10692 -2.48259,4.71154 -3.43134,9.82839 -3.64272,15.05373 -2.02222,0.91575 -3.72617,0.98791 -5.95655,1.0267 -7.0832,0.29017 -11.8801,3.53272 -16.71386,8.18584 -4.1389,4.46435 -5.5618998,10.233 -5.4194198,16.03697 0.56384,6.82088 3.6260198,13.24144 9.1237298,17.81635 4.66739,3.24165 9.50393,4.1864 15.17287,4.88376 -0.022,-0.40748 -0.044,-0.81497 -0.0666,-1.23481 -0.15688,-4.99467 -0.15688,-4.99467 1.13352,-6.92328 0.53769,-0.74614 0.53769,-0.74614 0.82977,-1.60942 -0.30853,-0.80942 -0.30853,-0.80942 -0.8807,-1.59554 -1.25156,-2.15757 -1.29113,-4.0332 -1.26779,-6.45156 -0.002,-0.63022 -0.002,-0.63022 -0.004,-1.27319 -0.002,-0.88355 0.002,-1.76712 0.0101,-2.65064 0.0102,-1.34473 7e-5,-2.6884 -0.0121,-4.03309 0.002,-0.86252 0.004,-1.72504 0.007,-2.58756 -0.004,-0.39783 -0.007,-0.79567 -0.0116,-1.20556 0.0458,-2.90556 0.69133,-5.3163 2.81273,-7.51921 2.36728,-1.99474 4.83133,-2.53956 7.94273,-2.54892 0.57224,-0.003 1.14449,-0.007 1.73407,-0.0114 0.62151,3.8e-4 1.24304,6e-4 1.88339,6e-4 0.66617,-0.003 1.33235,-0.005 1.99853,-0.01 1.80459,-0.007 3.60913,-0.01 5.41373,-0.0106 1.12901,-5.3e-4 2.25799,-0.003 3.38699,-0.004 3.94318,-0.008 7.8863,-0.0118 11.82947,-0.0111 3.66839,5.3e-4 7.33664,-0.008 11.005,-0.0229 3.15549,-0.0116 6.31092,-0.0164 9.46644,-0.0158 1.88196,2.2e-4 3.76382,-0.002 5.64578,-0.0117 1.77125,-0.008 3.54227,-0.008 5.313533,-0.002 0.9544,10e-4 1.90879,-0.005 2.86316,-0.0138 3.76919,0.0244 7.12635,0.27977 9.98755,2.78372 2.70551,2.7315 3.05194,5.22334 3.048,8.83445 0.002,0.41322 0.004,0.82648 0.005,1.25222 0.002,0.87247 0.003,1.74494 0.002,2.61742 -0.002,1.32905 0.01,2.65769 0.0216,3.98668 0.002,0.84981 0.002,1.69961 0.002,2.54941 0.004,0.39459 0.009,0.78918 0.0132,1.19573 -0.0194,2.46463 -0.46837,4.09779 -1.60794,6.31374 -0.11698,1.35974 -0.11698,1.35974 0.69838,2.4847 0.93963,1.96096 0.93741,3.58609 0.92967,5.70982 0.002,0.40064 0.004,0.80128 0.007,1.21408 0.003,0.84518 0.002,1.69038 -0.002,2.53557 -0.004,1.28336 0.01,2.56585 0.0247,3.84913 5.5e-4,0.82465 4.9e-4,1.64933 -0.002,2.47397 0.007,0.56836 0.007,0.56836 0.0161,1.14819 -0.0253,2.072149 -0.29548,3.459719 -1.33291,5.304549 -0.54698,0.95945 -0.54698,0.95945 -0.81506,1.91868 0.70902,1.449 0.70902,1.449 1.39086,2.29924 0.95876,1.53289 0.77557,3.23652 0.75763,4.96916 0.002,0.39122 0.004,0.78242 0.004,1.1855 0.002,0.8235 -0.002,1.64702 -0.0102,2.47049 -0.0101,1.25222 -8e-5,2.50331 0.0121,3.7555 -0.002,0.80384 -0.004,1.60768 -0.007,2.41152 0.004,0.37009 0.007,0.74018 0.0116,1.12148 -0.05,2.96136 -0.90554,5.28853 -2.98806,7.54824 -0.26465,0.19802 -0.5293,0.39602 -0.80198,0.60006 -0.26343,0.20489 -0.52685,0.40977 -0.79827,0.62087 -1.99386,1.21878 -3.73349,1.5439 -6.09532,1.54826 -0.56828,0.003 -1.13657,0.006 -1.72208,0.01 -0.92929,-0.001 -0.92929,-0.001 -1.87736,-0.003 -0.66222,0.002 -1.32443,0.004 -1.98663,0.006 -1.795763,0.005 -3.591503,0.005 -5.387283,0.005 -1.50108,-4.6e-4 -3.00215,0.001 -4.50321,0.003 -3.54307,0.004 -7.08609,0.005 -10.62915,0.003 -3.64978,-0.003 -7.29947,0.003 -10.94925,0.0123 -3.13775,0.007 -6.27546,0.0106 -9.41322,0.01 -1.87214,-5.9e-4 -3.74421,3.6e-4 -5.61636,0.006 -1.76187,0.005 -3.5236,0.004 -5.28548,-5.9e-4 -0.95052,-10e-4 -1.90104,0.003 -2.85155,0.008 -3.96607,-0.0215 -6.71229,-0.38745 -10.08274,-2.45097 -2.79412,-2.73523 -3.49044,-5.76386 -3.43577,-9.45361 -5.2e-4,-0.3822 -0.002,-0.76443 -0.002,-1.15822 5.4e-4,-0.80103 0.005,-1.60207 0.0161,-2.40303 0.0138,-1.22183 0.01,-2.44279 0.004,-3.66466 0.003,-0.78246 0.006,-1.56491 0.0121,-2.34737 -0.002,-0.36217 -0.002,-0.72435 -0.004,-1.09749 0.0385,-2.19147 0.40027,-3.64648 1.63226,-5.57084 0.15648,-0.29304 0.31295,-0.58606 0.47417,-0.88796 -0.46177,-0.74681 -0.93739,-1.48617 -1.42246,-2.21989 -0.45102,-1.31934 -0.52548,-2.50425 -0.5038,-3.88482 0.004,-0.354819 0.009,-0.709659 0.0128,-1.075249 0.004,-0.26784 0.011,-0.53568 0.0168,-0.81164 -0.305,0.0155 -0.61,0.0308 -0.92423,0.0468 -9.00192,0.25251 -16.63941,-3.39934 -23.1389998,-9.06514 -6.63557,-6.56917 -9.39297,-15.25415 -9.29205,-24.10541 0.27438,-8.9385 4.01684,-16.16667 10.6996798,-22.47931 5.15807,-4.51519 11.38291,-7.10271 18.38823,-7.88582 0.041,-0.31763 0.0818,-0.63526 0.12409,-0.96252 1.54077,-10.23146 7.74444,-19.42672 16.47124,-25.6761403 11.56141,-7.63085002 26.77823,-10.36863 40.30293,-5.77173 z"
     fill="#1f3448"
     id="path2"
     style="stroke-width:0.458817" />
  <path
     d="m 361.47254,39.981411 c 33.0471,0 33.0471,0 38.39706,4.30797 2.76979,2.84326 3.56665,5.70298 3.50614,9.45534 0.004,0.3411 0.011,0.68219 0.0167,1.03364 -0.0191,3.4961 -1.22615,5.90783 -3.72097,8.50669 -0.94253,0.85385 -1.94112,1.45509 -3.11164,2.0031 0.30928,0.12418 0.61855,0.24839 0.93721,0.37634 3.54163,1.52116 5.89743,3.19766 7.53828,6.56082 1.31972,3.79545 1.04549,8.58874 -0.88904,12.1539 -3.11041,4.19049 -7.04086,6.44748 -12.32796,7.54761 -10.03836,1.17495 -20.22926,0.44397 -30.34574,0.44397 0,-17.28849 0,-34.57699 0,-52.38938 z"
     fill="#21364a"
     id="path3"
     style="stroke-width:0.458817" />
  <path
     d="m 171.33746,39.981411 c 31.22752,0 31.22752,0 37.10613,4.88549 4.15727,4.0148 4.91342,8.19483 4.8405,13.60668 -0.19183,4.87545 -1.57629,8.08505 -5.23131,11.62548 -3.7537,3.12555 -7.87535,4.21897 -12.7984,4.15536 -0.33222,-5.9e-4 -0.66442,-10e-4 -1.00671,-0.003 -1.22583,-0.005 -2.45161,-0.0171 -3.67739,-0.0285 -4.12201,-0.0274 -4.12201,-0.0274 -8.3273,-0.0555 0,6.00701 0,12.01403 0,18.2031 -3.59882,0 -7.19764,0 -10.90552,0 0,-17.28851 0,-34.57701 0,-52.3894 z"
     fill="#22364b"
     id="path4"
     style="stroke-width:0.458817" />
  <path
     d="m 429.75046,39.981411 c 4.2247,0 8.44934,0 12.80214,0 1.44399,3.24515 2.86214,6.46974 4.16917,9.76058 0.16307,0.40796 0.32615,0.81595 0.49419,1.23628 0.53083,1.32878 1.06018,2.65806 1.58948,3.98738 0.56411,1.41392 1.12846,2.82772 1.69276,4.24152 0.38999,0.97699 0.77975,1.95401 1.16951,2.93109 1.39265,3.49074 2.79363,6.97852 4.19817,10.46512 0.58072,1.44327 1.16125,2.88659 1.74177,4.32992 0.37193,0.9238 0.74434,1.84743 1.11732,2.77086 0.52212,1.29307 1.04223,2.58682 1.56202,3.88074 0.22834,0.56341 0.22834,0.56341 0.46134,1.1382 1.01502,2.53374 1.83211,5.04203 2.66697,7.64769 -4.06826,0 -8.13651,0 -12.328,0 -0.62587,-1.73067 -1.25175,-3.46135 -1.89657,-5.24449 -0.19807,-0.54415 -0.39607,-1.08832 -0.60014,-1.64897 -0.15407,-0.42934 -0.30807,-0.85869 -0.46674,-1.30104 -0.23838,-0.65914 -0.23838,-0.65914 -0.48155,-1.33161 -0.34821,-1.12935 -0.34821,-1.12935 -0.34821,-2.46128 -7.19759,0 -14.39524,0 -21.81099,0 -0.31298,1.31862 -0.62589,2.63723 -0.94835,3.99581 -0.22276,0.71716 -0.45761,1.43137 -0.71486,2.13837 -0.1132,0.31453 -0.22633,0.62905 -0.34295,0.95309 -0.13985,0.38085 -0.27976,0.7617 -0.42389,1.15407 -0.67478,1.8543 -0.67478,1.8543 -1.36316,3.74605 -4.06825,0 -8.13647,0 -12.32797,0 0.89276,-2.78647 1.79491,-5.50984 2.86713,-8.23091 0.13651,-0.34949 0.27303,-0.69896 0.41368,-1.05904 0.44592,-1.14014 0.89396,-2.27955 1.34216,-3.41891 0.31595,-0.80592 0.63187,-1.61187 0.94774,-2.41781 2.63272,-6.70857 5.30927,-13.40162 7.99651,-20.09118 0.14236,-0.35439 0.28472,-0.70875 0.43137,-1.07386 0.13991,-0.34834 0.27987,-0.69667 0.42401,-1.05555 2.00983,-5.00672 3.987,-10.02466 5.96594,-15.04212 z"
     fill="#21364b"
     id="path5"
     style="stroke-width:0.458817" />
  <path
     d="m 503.12365,42.305341 c 2.86721,2.1031 5.25755,4.58233 6.28444,7.88756 0,1.17209 0,2.34421 0,3.55182 -3.59886,0 -7.19774,0 -10.90552,0 -0.62588,-1.17211 -1.25176,-2.34421 -1.89664,-3.55182 -3.38783,-2.09232 -7.44278,-2.09647 -11.37971,-1.77592 -2.02876,0.54959 -3.40136,1.45494 -4.97853,2.74712 -1.01294,1.77836 -1.06804,3.27206 -0.71125,5.24449 0.88737,1.78059 2.10088,2.40479 3.97098,3.13559 2.72408,0.8548 5.50399,1.29132 8.32734,1.74817 6.75139,1.09575 11.59794,2.39651 16.53606,7.02039 2.48478,3.39023 3.45479,6.63735 2.93381,10.73873 -0.91896,4.33125 -3.67967,8.19391 -7.58641,10.65548 -7.31857,4.16686 -15.31908,4.94936 -23.57238,3.09223 -4.92364,-1.35402 -9.5468,-4.11499 -12.25574,-8.30899 -1.24742,-2.64056 -1.1558,-4.17643 -1.1558,-7.21464 3.75535,0 7.51056,0 11.3797,0 0.46944,1.17211 0.93886,2.34421 1.42244,3.55182 2.03421,2.07284 4.8526,2.90798 7.78462,3.2362 3.22573,0.10562 6.92445,-0.25551 9.64981,-1.99618 1.53636,-1.3723 1.96049,-2.55791 2.15396,-4.51436 -0.18152,-1.97177 -0.46207,-2.52376 -2.04475,-3.82929 -3.30216,-1.54733 -6.73711,-2.23678 -10.34244,-2.85812 -12.87359,-2.38748 -12.87359,-2.38748 -16.98056,-7.40714 -1.9075,-2.76542 -2.18498,-4.97943 -2.22262,-8.21534 -0.0141,-0.38402 -0.0275,-0.76805 -0.0423,-1.1637 -0.0429,-4.09163 1.47071,-7.19081 4.43502,-10.16814 8.26918,-7.00409 22.06182,-7.1857 31.19588,-1.60596 z"
     fill="#21364a"
     id="path6"
     style="stroke-width:0.458817" />
  <path
     d="m 519.36527,39.981411 c 12.04818,0 24.09643,0 36.50973,0 0,3.22328 0,6.44655 0,9.76751 -8.44946,0 -16.89877,0 -25.60423,0 0,3.80933 0,7.61866 0,11.54343 7.667,0 15.33408,0 23.23346,0 0,3.22328 0,6.44656 0,9.76751 -7.66709,0 -15.33416,0 -23.23346,0 0,3.80933 0,7.61867 0,11.54343 8.44939,0 16.89876,0 25.60423,0 0,3.22327 0,6.44656 0,9.7675 -12.04826,0 -24.09636,0 -36.50973,0 0,-17.28849 0,-34.57699 0,-52.38938 z"
     fill="#22374b"
     id="path7"
     style="stroke-width:0.458817" />
  <path
     d="m 220.64931,39.981411 c 3.59882,0 7.19763,0 10.9055,0 0.006,1.05502 0.0139,2.11006 0.0209,3.19704 0.0239,3.49638 0.0555,6.99265 0.0908,10.48894 0.021,2.11858 0.0398,4.23713 0.0525,6.35578 0.0123,2.04685 0.0315,4.09355 0.0553,6.1403 0.007,0.7786 0.0133,1.55722 0.0163,2.33586 -0.13536,6.48953 -0.13536,6.48953 2.69789,12.24481 4.03158,2.93611 7.71789,3.21106 12.7132,2.7471 3.06575,-0.69805 4.89275,-2.01307 6.63813,-4.43977 1.40513,-2.63142 1.49434,-5.43 1.51981,-8.32438 0.004,-0.33383 0.009,-0.66765 0.0143,-1.01159 0.0149,-1.09539 0.0267,-2.19077 0.0384,-3.28619 0.01,-0.76267 0.0198,-1.52531 0.0299,-2.28798 0.0261,-2.00131 0.0496,-4.00265 0.0724,-6.004 0.0239,-2.04463 0.0502,-4.08923 0.0764,-6.13383 0.0509,-4.00735 0.0988,-8.01471 0.14539,-12.02209 3.59883,0 7.19764,0 10.90551,0 0.0322,4.58153 0.0583,9.163 0.0738,13.74462 0.007,2.12802 0.0174,4.25598 0.0335,6.38397 0.0156,2.05829 0.024,4.11652 0.0277,6.17487 0.002,0.78051 0.007,1.56103 0.0154,2.34151 0.0677,7.11074 -0.27609,13.8622 -5.63277,19.38789 -5.1599,4.52504 -12.3408,5.99331 -19.25503,5.78559 -6.14285,-0.44491 -12.05093,-2.16709 -16.51384,-6.31282 -3.47351,-4.02277 -4.82047,-7.93869 -4.79535,-13.08055 -8e-5,-0.37273 -1.4e-4,-0.74547 -2.1e-4,-1.12949 3.2e-4,-1.22755 0.004,-2.45506 0.007,-3.68261 0.002,-0.85289 0.002,-1.70576 0.002,-2.55864 0.002,-2.24149 0.006,-4.48296 0.0118,-6.72444 0.004,-2.28859 0.007,-4.57717 0.009,-6.86576 0.004,-4.48804 0.0135,-8.9761 0.0232,-13.46414 z"
     fill="#21354a"
     id="path8"
     style="stroke-width:0.458817" />
  <path
     d="m 44.923967,58.572101 c 0.83178,-0.002 0.83178,-0.002 1.68036,-0.003 0.61383,5.9e-4 1.22766,10e-4 1.86011,0.003 0.64861,-5.4e-4 1.29723,-0.001 1.94586,-0.002 1.76626,-0.002 3.53253,-5.9e-4 5.29878,1.6e-4 1.84444,5.9e-4 3.68888,8e-5 5.53332,-5.3e-4 3.09799,-6.1e-4 6.19597,2.5e-4 9.29396,0.002 3.58675,0.003 7.17349,10e-4 10.76025,-6e-4 3.07402,-0.002 6.14805,-0.002 9.22209,-6e-4 1.83837,5.4e-4 3.67676,5.4e-4 5.51515,-5.3e-4 1.72794,-6e-4 3.45586,-3.9e-4 5.183803,0.002 0.94043,5.9e-4 1.88086,-4.6e-4 2.82129,-10e-4 0.55452,6e-4 1.10904,0.003 1.68036,0.003 0.48498,1.6e-4 0.96994,3.4e-4 1.46959,5e-4 1.08633,0.0559 1.08633,0.0559 1.56047,0.49986 0.0538,1.20563 0.0778,2.39955 0.0797,3.60558 0.002,0.3619 0.003,0.72377 0.004,1.09662 0.002,0.76699 0.004,1.53398 0.003,2.30096 0.002,1.17617 0.01,2.35217 0.0186,3.52831 0.002,0.74371 0.002,1.48744 0.002,2.23115 0.003,0.35336 0.006,0.7067 0.0103,1.07076 -0.0111,2.4922 -0.0111,2.4922 -1.06788,3.48176 -1.11981,0.11298 -1.11981,0.11298 -2.55257,0.11573 -0.54184,0.003 -1.08367,0.006 -1.64192,0.01 -0.59733,-6e-4 -1.19467,-0.002 -1.81011,-0.003 -0.63314,0.002 -1.26628,0.004 -1.899423,0.006 -1.72224,0.005 -3.44441,0.005 -5.16663,0.005 -1.43644,-4.7e-4 -2.87283,0.001 -4.30925,0.003 -3.38813,0.004 -6.77623,0.005 -10.16437,0.003 -3.49816,-0.003 -6.99623,0.003 -10.49437,0.0123 -3.00077,0.007 -6.00153,0.0106 -9.00231,0.01 -1.79338,-5.9e-4 -3.5867,3.8e-4 -5.38006,0.006 -1.68635,0.005 -3.37256,0.004 -5.05892,-6e-4 -0.91535,-0.001 -1.83072,0.003 -2.74606,0.008 -0.54318,-0.003 -1.08634,-0.005 -1.64596,-0.01 -0.473,8e-5 -0.94599,1.5e-4 -1.43332,2.3e-4 -1.17946,-0.16637 -1.17946,-0.16637 -2.04343,-0.74202 -0.96521,-1.30706 -0.74035,-2.83475 -0.71407,-4.36708 0.002,-0.35183 0.002,-0.70365 0.002,-1.06614 0.003,-0.74266 0.01,-1.48532 0.0194,-2.22792 0.0147,-1.14101 0.0193,-2.28175 0.0222,-3.42285 0.004,-0.72088 0.009,-1.44177 0.0147,-2.16264 0.002,-0.34315 0.004,-0.6863 0.005,-1.03984 0.0407,-2.82328 0.14817,-2.95235 3.12028,-2.95337 z"
     fill="#fcfaf8"
     id="path9"
     style="stroke-width:0.458817" />
  <path
     d="m 45.929127,84.213051 c 0.54315,-0.003 1.08632,-0.005 1.64597,-0.01 0.59636,0.003 1.19273,0.006 1.80719,0.0106 0.63398,-5.9e-4 1.26796,-0.003 1.90194,-0.004 1.7222,-0.004 3.44427,0 5.16646,0.005 1.80055,0.004 3.6011,0.003 5.40164,0.002 3.02338,-3.9e-4 6.04671,0.004 9.07009,0.0127 3.49844,0.01 6.9968,0.011 10.49524,0.008 3.36232,-0.003 6.72463,-4e-5 10.08694,0.004 1.43246,0.002 2.86491,0.003 4.29738,0.001 1.68555,-5.9e-4 3.37104,0.003 5.056583,0.01 0.91601,0.003 1.83202,6e-4 2.74804,-4.8e-4 0.54183,0.003 1.08367,0.006 1.64192,0.01 0.7092,0.001 0.7092,0.001 1.43276,0.003 1.11979,0.11299 1.11979,0.11299 2.06808,1.00094 0.0888,1.20456 0.12123,2.36299 0.10929,3.56744 -2.2e-4,0.35244 -4.4e-4,0.7049 -5.3e-4,1.06804 -0.002,0.7453 -0.004,1.4906 -0.0111,2.23589 -0.009,1.14492 -0.01,2.28969 -0.01,3.43465 -0.002,0.7229 -0.004,1.44582 -0.009,2.16873 -5.5e-4,0.34453 -0.002,0.68907 -0.002,1.04404 -0.023,2.412889 -0.023,2.412889 -0.5522,2.908389 -0.84383,0.0447 -1.68956,0.0581 -2.53473,0.0593 -0.54985,0.002 -1.0997,0.003 -1.6662,0.005 -0.60866,-1.9e-4 -1.2173,-4e-4 -1.84441,-5.3e-4 -0.64318,6e-4 -1.28636,0.003 -1.92953,0.004 -1.751623,0.003 -3.503203,0.004 -5.254803,0.005 -1.46002,4.3e-4 -2.92001,0.002 -4.38001,0.003 -3.44334,0.003 -6.88667,0.004 -10.33,0.004 -3.55713,-2.7e-4 -7.11423,0.004 -10.67136,0.0114 -3.04946,0.005 -6.09892,0.008 -9.14839,0.007 -1.82333,-1.1e-4 -3.64659,6e-4 -5.46989,0.005 -1.71433,0.004 -3.42861,0.004 -5.14295,6.1e-4 -0.93185,-5.4e-4 -1.86371,0.003 -2.79556,0.006 -0.55119,-0.002 -1.10236,-0.003 -1.67025,-0.005 -0.48105,2.6e-4 -0.96208,5e-4 -1.45769,5.5e-4 -1.13724,-0.1105 -1.13724,-0.1105 -2.08556,-0.99845 -0.10045,-1.130249 -0.14414,-2.211019 -0.14261,-3.341979 -0.002,-0.33065 -0.004,-0.66128 -0.005,-1.00194 -0.002,-0.69976 -0.003,-1.39953 -0.002,-2.09929 0.002,-1.07102 -0.01,-2.1415 -0.0216,-3.21245 -0.002,-0.67955 -0.002,-1.35911 -0.002,-2.03865 -0.004,-0.32054 -0.009,-0.64107 -0.0133,-0.97131 0.0218,-2.20981 0.0218,-2.20981 0.74446,-3.18039 1.19413,-0.80373 2.01177,-0.74756 3.47625,-0.74733 z"
     fill="#fefcf9"
     id="path10"
     style="stroke-width:0.458817" />
  <path
     d="m 45.907927,109.51681 c 0.53851,-0.003 1.07698,-0.007 1.63179,-0.0113 0.5912,0.003 1.18239,0.005 1.79151,0.008 0.93339,-0.003 0.93339,-0.003 1.88562,-0.007 1.70754,-0.005 3.41494,-0.003 5.12248,5.1e-4 1.78578,0.003 3.57154,2.4e-4 5.35732,-10e-4 2.99906,-0.003 5.99808,5.3e-4 8.99713,0.007 3.46884,0.007 6.93754,0.004 10.40635,-0.003 2.97662,-0.005 5.95322,-0.006 8.92985,-0.003 1.77853,0.002 3.557,0.002 5.33553,-0.002 1.98224,-0.004 3.96428,0.001 5.946523,0.01 0.5912,-0.003 1.1824,-0.005 1.79151,-0.008 0.80774,0.005 0.80774,0.005 1.6318,0.0113 0.46887,5.1e-4 0.93775,6e-4 1.42085,10e-4 1.17073,0.16761 1.17073,0.16761 2.0329,0.74898 0.93748,1.2559 0.75265,2.67478 0.73254,4.15151 3.4e-4,0.49659 3.4e-4,0.49659 5.2e-4,1.00323 -0.002,0.69898 -0.005,1.39797 -0.0136,2.09691 -0.0112,1.07191 -0.01,2.14333 -0.006,3.21527 -0.002,0.67898 -0.005,1.35795 -0.0101,2.03693 4.3e-4,0.32143 0.002,0.64286 0.002,0.97402 -0.0344,2.26538 -0.0344,2.26538 -1.09224,3.2559 -1.12852,0.11175 -1.12852,0.11175 -2.57374,0.11276 -0.81975,0.003 -0.81975,0.003 -1.65608,0.007 -0.60251,-0.001 -1.20503,-0.003 -1.8258,-0.005 -0.63859,6e-4 -1.27717,0.003 -1.915743,0.004 -1.7369,0.004 -3.47375,0.003 -5.21063,-3.5e-4 -1.81511,-0.002 -3.63021,-1.6e-4 -5.44532,6e-4 -3.04853,10e-4 -6.09703,-5.2e-4 -9.14556,-0.004 -3.52776,-0.004 -7.0555,-0.003 -10.58328,0.001 -3.02533,0.004 -6.05065,0.004 -9.07597,0.002 -1.80847,-0.001 -3.61689,-0.001 -5.42533,0.001 -1.69996,0.003 -3.39983,6e-4 -5.09977,-0.004 -0.92394,-0.001 -1.84788,5.9e-4 -2.77181,0.003 -0.5465,-0.003 -1.09301,-0.004 -1.65608,-0.007 -0.47693,-3.4e-4 -0.95384,-5.3e-4 -1.44521,-5.9e-4 -1.12853,-0.11176 -1.12853,-0.11176 -2.07683,-0.99971 -0.10046,-1.13025 -0.14415,-2.21102 -0.14262,-3.34198 -0.002,-0.33064 -0.004,-0.66127 -0.005,-1.00193 -0.002,-0.69977 -0.003,-1.39953 -0.002,-2.09929 0.002,-1.07103 -0.01,-2.1415 -0.0216,-3.21245 -0.002,-0.67956 -0.002,-1.35912 -0.002,-2.03865 -0.004,-0.32055 -0.009,-0.64107 -0.0132,-0.97132 0.0218,-2.21038 0.0218,-2.21038 0.74578,-3.18019 1.18788,-0.801 1.99592,-0.74895 3.45375,-0.75051 z"
     fill="#fdfbf8"
     id="path11"
     style="stroke-width:0.458817" />
  <path
     d="m 275.65098,39.981411 c 3.59881,0 7.19762,0 10.90549,0 0,14.06521 0,28.13043 0,42.62188 8.29293,0 16.58586,0 25.13007,0 0,3.22327 0,6.44656 0,9.7675 -11.89174,0 -23.78347,0 -36.03556,0 0,-17.28849 0,-34.57699 0,-52.38938 z"
     fill="#233a4f"
     id="path12"
     style="stroke-width:0.458817" />
  <path
     d="m 318.79882,39.981411 c 3.59882,0 7.19764,0 10.90551,0 0,14.06521 0,28.13043 0,42.62188 8.13645,0 16.27291,0 24.65592,0 0,3.22327 0,6.44656 0,9.7675 -11.73527,0 -23.47054,0 -35.56143,0 0,-17.28849 0,-34.57699 0,-52.38938 z"
     fill="#253c51"
     id="path13"
     style="stroke-width:0.458817" />
  <path
     d="m 182.24298,49.304941 c 3.05116,-0.0412 3.05116,-0.0412 6.16396,-0.0833 0.63384,-0.0121 1.26766,-0.0243 1.9207,-0.0368 3.18068,-0.0208 5.64804,0.1085 8.51066,1.45192 2.00868,1.93034 2.98087,3.6586 2.99309,6.35443 -0.0631,2.77048 -0.51349,4.61563 -2.63748,6.65968 -3.47236,1.99517 -7.03962,1.74478 -10.9944,1.69266 -1.96565,-0.0183 -3.93131,-0.0366 -5.95653,-0.0555 0,-5.27446 0,-10.54892 0,-15.9832 z"
     fill="#fdfcfa"
     id="path14"
     style="stroke-width:0.458817" />
  <path
     d="m 372.37804,70.615891 c 2.01548,-0.0307 4.03,-0.0573 6.04556,-0.0732 0.68378,-0.006 1.36754,-0.0158 2.05126,-0.0273 8.76342,-0.14507 8.76342,-0.14507 12.05464,2.32036 1.41014,1.76054 1.40851,3.6544 1.18539,5.77172 -0.60383,1.83754 -1.18398,2.50502 -2.85973,3.62119 -3.25393,1.45594 -7.13127,1.00161 -10.65361,0.92959 -0.75937,-0.008 -1.51875,-0.0171 -2.27815,-0.0243 -1.84899,-0.0179 -3.69633,-0.0527 -5.54536,-0.0867 0,-4.10235 0,-8.20471 0,-12.43139 z"
     fill="#fdfcf9"
     id="path15"
     style="stroke-width:0.458817" />
  <path
     d="m 372.37804,49.304941 c 1.95653,-0.0308 3.91235,-0.0572 5.86902,-0.0732 0.66403,-0.006 1.32804,-0.0157 1.99199,-0.0272 8.21521,-0.13991 8.21521,-0.13991 10.93375,2.06163 1.36523,1.48629 1.2491,3.18866 1.22335,5.04538 -0.18492,1.75628 -1.03145,2.74172 -2.32631,3.95418 -3.55557,1.8896 -7.57386,1.5766 -11.52783,1.52618 -2.0341,-0.0183 -4.06822,-0.0366 -6.16397,-0.0555 0,-4.10236 0,-8.20472 0,-12.43137 z"
     fill="#fbfaf8"
     id="path16"
     style="stroke-width:0.458817" />
  <path
     d="m 435.91439,50.636871 c 1.3446,0.62949 1.42863,1.53018 1.88676,2.80591 0.1727,0.49799 0.1727,0.49799 0.34889,1.00606 0.12153,0.34256 0.24311,0.6851 0.36837,1.03804 0.25788,0.72881 0.51404,1.45814 0.76873,2.18795 0.3843,1.10124 0.7737,2.20081 1.16412,3.30014 0.25072,0.71038 0.50105,1.42087 0.75109,2.13143 0.11416,0.32303 0.22828,0.64604 0.34594,0.97884 0.90704,2.60612 1.65365,5.20829 2.42673,7.86257 -5.00704,0 -10.01407,0 -15.17285,0 0.87884,-3.01741 1.76659,-5.98872 2.80601,-8.95413 0.18642,-0.53656 0.18642,-0.53656 0.37658,-1.08396 0.39013,-1.12185 0.78184,-2.24318 1.17369,-3.36448 0.26774,-0.76914 0.53536,-1.53829 0.80286,-2.30748 0.64978,-1.86737 1.30104,-3.73425 1.95308,-5.60089 z"
     fill="#f5f5f4"
     id="path17"
     style="stroke-width:0.458817" />
  <path
     d="m 275.65098,39.981411 c 3.59881,0 7.19762,0 10.90549,0 0,14.06521 0,28.13043 0,42.62188 8.29293,0 16.58586,0 25.13007,0 0,3.22327 0,6.44656 0,9.7675 -11.89174,0 -23.78347,0 -36.03556,0 0,-17.28849 0,-34.57699 0,-52.38938 z m 0.47414,0.44397 c 0,16.84897 0,33.69793 0,51.05746 11.42233,0 22.84466,0 34.61312,0 0,-2.63722 0,-5.27445 0,-7.9916 -8.13645,-0.14651 -16.2729,-0.29302 -24.65593,-0.44397 -0.23469,-21.09783 -0.23469,-21.09783 -0.47414,-42.62189 -3.1294,0 -6.25881,0 -9.48305,0 z"
     fill="#151c28"
     id="path18"
     style="stroke-width:0.458817" />
  <path
     d="m 276.12512,40.425381 c 3.1294,0 6.25882,0 9.48305,0 0,14.06522 0,28.13045 0,42.62189 -0.15648,0 -0.31294,0 -0.47415,0 0,-13.7722 0,-27.5444 0,-41.73393 -2.66,0 -5.31999,0 -8.0606,0 0,16.40942 0,32.81886 0,49.72553 10.95294,0 21.90584,0 33.19067,0 0,-2.34421 0,-4.6884 0,-7.10365 -7.97997,0 -15.95997,0 -24.18178,0 0,-0.14651 0,-0.29302 0,-0.44398 8.13647,0 16.27292,0 24.65593,0 0,2.63724 0,5.27446 0,7.9916 -11.42233,0 -22.84466,0 -34.61312,0 0,-16.84896 0,-33.69792 0,-51.05746 z"
     fill="#283f56"
     id="path19"
     style="stroke-width:0.458817" />
  <path
     d="m 318.79882,39.981411 c 3.59882,0 7.19764,0 10.90551,0 -0.15647,14.21172 -0.31294,28.42346 -0.47415,43.06586 -0.15648,0 -0.31294,0 -0.47415,0 0,-14.06522 0,-28.13045 0,-42.62189 -2.97294,0 -5.94587,0 -9.0089,0 0,16.84897 0,33.69793 0,51.05746 11.10939,0 22.21877,0 33.66482,0 -1.73697,1.08429 -2.56096,0.99573 -4.63075,0.98877 -0.49375,1.6e-4 -0.49375,1.6e-4 -0.99746,3.3e-4 -1.0646,-5.3e-4 -2.12906,-0.007 -3.19362,-0.0144 -0.65762,-6e-4 -1.31522,-0.002 -1.97284,-0.003 -2.43735,-0.004 -4.87469,-0.0171 -7.31203,-0.0286 -5.44712,-0.0182 -10.89423,-0.0365 -16.50643,-0.0555 0,-17.2885 0,-34.57701 0,-52.3894 z"
     fill="#010819"
     id="path20"
     style="stroke-width:0.458817" />
  <path
     d="m 530.27077,61.292351 c 7.667,0 15.33408,0 23.23346,0 0,3.22328 0,6.44656 0,9.76751 -7.66709,0 -15.33416,0 -23.23346,0 0,3.80933 0,7.61867 0,11.54343 8.44939,0 16.89876,0 25.60423,0 0,0.14652 0,0.29302 0,0.44398 -3.70532,0.0745 -7.41048,0.14553 -11.11587,0.21407 -1.26164,0.0238 -2.52322,0.0484 -3.78487,0.0737 -1.80891,0.0362 -3.61783,0.0697 -5.42667,0.10244 -0.85201,0.018 -0.85201,0.018 -1.72129,0.0364 -0.52201,0.008 -1.04409,0.0178 -1.58195,0.0271 -0.46214,0.008 -0.92445,0.0177 -1.40069,0.0269 -1.04704,-0.0364 -1.04704,-0.0364 -1.52128,-0.48051 -0.12029,-1.98606 -0.0877,-3.97708 -0.0889,-5.96595 -0.009,-0.84344 -0.009,-0.84344 -0.0177,-1.70394 0,-0.53597 0,-1.07195 -0.007,-1.62416 0,-0.49474 -0.007,-0.98946 -0.007,-1.49919 0.1151,-1.19416 0.1151,-1.19416 1.06342,-2.08212 0.96015,-0.10679 0.96015,-0.10679 2.15336,-0.10075 0.66919,10e-5 0.66919,10e-5 1.35187,2.1e-4 0.4826,0.004 0.96505,0.01 1.46225,0.0139 0.49341,5.9e-4 0.98667,0.003 1.49483,0.003 1.57996,0.005 3.15975,0.0161 4.73948,0.0274 1.06943,0.004 2.1387,0.008 3.20805,0.0121 2.62515,0.01 5.25029,0.0251 7.8753,0.0433 0,-2.63724 0,-5.27447 0,-7.99161 -7.35411,0 -14.70814,0 -22.28514,0 0,-0.29302 0,-0.58606 0,-0.88795 z"
     fill="#212c40"
     id="path21"
     style="stroke-width:0.458817" />
  <path
     d="m 329.23018,40.425381 c 0.15647,0 0.31294,0 0.47415,0 0,13.91871 0,27.83742 0,42.17791 8.13645,0 16.27291,0 24.65592,0 0,3.22327 0,6.44656 0,9.7675 -0.78234,0 -1.56471,0 -2.37076,0 0.4694,-0.14649 0.93882,-0.29302 1.42246,-0.44397 0,-2.78373 0,-5.56747 0,-8.43558 -7.97999,0 -15.95997,0 -24.18177,0 0,-14.21173 0,-28.42346 0,-43.06586 z"
     fill="#2c3644"
     id="path22"
     style="stroke-width:0.458817" />
  <path
     d="m 98.969977,89.984431 c 1.718803,0.16648 1.718803,0.16648 2.904183,0.88795 0.71123,1.05444 0.71123,1.05444 0.68159,2.41412 -0.6691,1.96316 -0.6691,1.96316 -1.86697,2.63613 -1.659533,0.19424 -1.659533,0.19424 -3.319073,0 -0.9483,-0.69371 -0.9483,-0.69371 -1.42244,-1.77591 0.21377,-3.87006 0.21377,-3.87006 3.02271,-4.16229 z"
     fill="#1e2f41"
     id="path23"
     style="stroke-width:0.458817" />
  <path
     d="m 99.562657,64.455691 c 1.600273,0.38848 1.600273,0.38848 2.548583,1.27643 0.3223,3.16879 0.3223,3.16879 -0.77049,4.46753 -1.539963,0.56919 -2.403003,0.44085 -3.971043,-0.0276 -1.07919,-0.94315 -1.37607,-1.52776 -1.6299,-2.88585 0.20746,-1.10995 0.20746,-1.10995 0.94832,-2.16439 1.15574,-0.72147 1.15574,-0.72147 2.87453,-0.66598 z"
     fill="#1b2c3e"
     id="path24"
     style="stroke-width:0.458817" />
  <path
     d="m 530.27077,61.292351 c 7.667,0 15.33408,0 23.23346,0 0,3.22328 0,6.44656 0,9.76751 -0.31297,0 -0.62587,0 -0.94824,0 0,-2.93026 0,-5.86051 0,-8.87956 -7.35419,0 -14.70829,0 -22.28522,0 0,-0.29302 0,-0.58605 0,-0.88795 z"
     fill="#2e333d"
     id="path25"
     style="stroke-width:0.458817" />
  <path
     d="m 374.55987,69.668961 c 0.45452,-6.1e-4 0.90903,-0.002 1.37732,-0.003 2.44902,0.011 4.89754,0.0297 7.34635,0.0622 0.3875,0.003 0.77501,0.006 1.17427,0.01 0.97203,0.0119 1.94377,0.0419 2.91529,0.0735 0.53421,0.0155 1.0684,0.0309 1.61878,0.0468 1.83546,0.41038 2.55737,1.21593 3.7747,2.53379 0.31294,0.29302 0.6259,0.58605 0.94831,0.88796 -0.15647,0.43953 -0.31294,0.87908 -0.47415,1.33192 -0.22493,-0.3388 -0.44985,-0.67761 -0.6816,-1.02669 -2.69256,-2.6442 -6.37644,-2.67674 -10.09159,-2.77929 -1.00224,-0.021 -2.00449,-0.0362 -3.00687,-0.0511 -0.68871,-0.0147 -1.37739,-0.0301 -2.06608,-0.046 -1.67219,-0.0383 -3.34396,-0.0654 -5.01656,-0.0928 0,4.24887 0,8.49775 0,12.87536 -0.15647,0 -0.31294,0 -0.47416,0 -0.0117,-1.88874 -0.0203,-3.77746 -0.0261,-5.66624 -0.002,-0.64298 -0.005,-1.28598 -0.01,-1.92896 -0.005,-0.9224 -0.009,-1.84476 -0.0105,-2.76717 -0.002,-0.55569 -0.004,-1.11137 -0.007,-1.68388 0.0861,-2.03707 0.74224,-1.77362 2.70982,-1.77602 z"
     fill="#030c1b"
     id="path26"
     style="stroke-width:0.458817" />
  <path
     d="m 530.84366,48.824421 c 0.69335,0.0132 0.69335,0.0132 1.40069,0.0269 0.52209,0.008 1.04417,0.0179 1.58195,0.027 0.8521,0.018 0.8521,0.018 1.72129,0.0364 0.8672,0.0157 0.8672,0.0157 1.75202,0.0318 1.85529,0.0341 3.71058,0.0714 5.56586,0.10871 1.25417,0.0236 2.50841,0.0469 3.76265,0.0702 3.08234,0.0575 6.16461,0.11753 9.24688,0.1795 0,0.14652 0,0.29303 0,0.44398 -8.44946,0 -16.89877,0 -25.60423,0 0,4.10236 0,8.20472 0,12.43139 -0.31297,-0.14652 -0.62587,-0.29303 -0.94839,-0.44397 -0.0119,-1.76229 -0.02,-3.52457 -0.026,-5.28689 0,-0.59991 -0.007,-1.19984 -0.009,-1.79976 -0.007,-0.86066 -0.009,-1.72134 -0.0104,-2.58202 0,-0.51848 -0.007,-1.03696 -0.007,-1.57115 0.0734,-1.61969 0.0734,-1.61969 1.57506,-1.67209 z"
     fill="#31394a"
     id="path27"
     style="stroke-width:0.458817" />
  <path
     d="m 466.7343,77.275551 c 3.75535,0 7.51056,0 11.3797,0 0.46944,1.17211 0.93886,2.34421 1.42244,3.55182 3.13577,3.19529 7.98238,3.35216 12.32793,3.55184 0,0.1465 0,0.29302 0,0.44397 -5.39761,0.19165 -8.88931,0.0152 -13.11137,-3.19977 -0.639,-0.79604 -0.639,-0.79604 -1.11319,-3.4599 -3.28586,0 -6.57172,0 -9.95716,0 0,1.31861 0,2.63722 0,3.9958 -0.94835,-1.33194 -0.94835,-1.33194 -0.94835,-4.88376 z"
     fill="#0a111d"
     id="path28"
     style="stroke-width:0.458817" />
  <path
     d="m 100.68878,116.34562 c 0.94829,1.33192 0.94829,1.33192 0.82976,2.46962 -0.35561,1.0822 -0.35561,1.0822 -1.30391,1.97015 -1.718803,-0.16649 -1.718803,-0.16649 -3.319073,-0.44398 -0.62854,-2.83571 -0.62854,-2.83571 0.0297,-3.99579 1.39306,-0.67326 2.29446,-0.40976 3.763583,0 z"
     fill="#1a293a"
     id="path29"
     style="stroke-width:0.458817" />
  <path
     d="m 425.00895,80.383401 c 0.58488,1.64312 0.28422,2.17682 -0.30936,3.79289 -0.15522,0.42934 -0.31039,0.85868 -0.47027,1.30104 -0.20237,0.54416 -0.40472,1.08834 -0.6132,1.64897 -0.63568,1.73069 -1.27131,3.46138 -1.92623,5.24449 -4.06825,0 -8.13647,0 -12.32797,0 0.31293,-0.87906 0.62588,-1.75814 0.9483,-2.66384 0.15647,0.43952 0.31294,0.87906 0.47415,1.33192 3.44234,0.14651 6.88469,0.29303 10.43136,0.44397 0.19556,-0.68677 0.39118,-1.37354 0.59267,-2.08114 2.41582,-8.28354 2.41582,-8.28354 3.20055,-9.0183 z"
     fill="#040b19"
     id="path30"
     style="stroke-width:0.458817" />
  <path
     d="m 460.09616,84.823181 c 1.19133,1.34878 1.84082,2.62585 2.45971,4.27329 0.16319,0.42693 0.32639,0.8539 0.49455,1.29377 0.36488,1.0926 0.36488,1.0926 0.36488,1.98055 -4.06826,0 -8.13651,0 -12.328,0 0.23472,-0.65929 0.23472,-0.65929 0.47421,-1.33192 3.44225,0 6.88462,0 10.43135,0 -0.31296,-0.77834 -0.62594,-1.5567 -0.94834,-2.35863 -0.56185,-1.39757 -0.94836,-2.35879 -0.94836,-3.85706 z"
     fill="#040c1a"
     id="path31"
     style="stroke-width:0.458817" />
  <path
     d="m 14.867217,39.537431 c 0.15647,0.29302 0.31294,0.58604 0.47416,0.88795 -0.47416,1.33193 -0.47416,1.33193 -1.33356,1.80367 -0.34228,0.13735 -0.68456,0.2747 -1.03721,0.41623 -1.37243,0.58412 -2.30194,1.17225 -3.3190598,2.21988 -0.31295,-0.14652 -0.62589,-0.29302 -0.94831,-0.44397 1.9226398,-1.89616 3.7757698,-3.5202 6.1639798,-4.88376 z"
     fill="#121d2c"
     id="path32"
     style="stroke-width:0.458817" />
  <path
     d="m 388.97337,70.171911 c 1.25965,0.0674 2.111,0.23092 3.07272,1.01976 0.66122,0.70065 0.66122,0.70065 1.6688,2.08807 -0.15647,0.43955 -0.31294,0.87909 -0.47415,1.33193 -0.26405,-0.34796 -0.52809,-0.69592 -0.80014,-1.05444 -1.13283,-1.20409 -1.85546,-1.59225 -3.46723,-2.05339 0,-0.43954 0,-0.87909 0,-1.33193 z"
     fill="#162130"
     id="path33"
     style="stroke-width:0.458817" />
  <path
     d="m 78.403627,8.9029407 c 3.44307,-0.21857 3.44307,-0.21857 5.21567,0.88796 0.31295,0.2930303 0.62588,0.5860503 0.94831,0.8879603 -0.85028,-0.12515 -1.69963,-0.25566 -2.54857,-0.38849 -0.47309,-0.0721 -0.94616,-0.14421 -1.43358,-0.21852 -1.23353,-0.2809503 -1.23353,-0.2809503 -2.18183,-1.1689103 z"
     fill="#111a26"
     id="path34"
     style="stroke-width:0.458817" />
  <path
     d="m 100.68878,10.678861 c 1.59658,0.61861 2.3641,1.32257 3.31906,2.66387 -1.42245,0 -1.42245,0 -2.45966,-0.83246 -0.8594,-0.94346 -0.8594,-0.94346 -0.8594,-1.83141 z"
     fill="#2b3440"
     id="path35"
     style="stroke-width:0.458817" />
</svg>
